<?xml version="1.0" ?><svg height="512" id="svg2" version="1.1" width="512" xmlns="http://www.w3.org/2000/svg" xmlns:cc="http://creativecommons.org/ns#" xmlns:dc="http://purl.org/dc/elements/1.1/" xmlns:inkscape="http://www.inkscape.org/namespaces/inkscape" xmlns:rdf="http://www.w3.org/1999/02/22-rdf-syntax-ns#" xmlns:sodipodi="http://sodipodi.sourceforge.net/DTD/sodipodi-0.dtd" xmlns:svg="http://www.w3.org/2000/svg"><defs id="defs4"/><g id="layer1" transform="translate(0,-540.36218)"><g id="g3001"><path d="m 487.52462,1027.8868 -35.38268,-92.68749 -17.58815,17.56522 -94.80104,-94.80104 c -7.38381,7.38381 -14.76763,14.76763 -22.15144,22.15144 l 94.80104,94.80104 -17.56522,17.58815 z" id="path3037" style="fill:#000000;stroke:none"/><path d="m 194.39872,880.11493 c -7.38381,-7.38381 -14.76763,-14.76763 -22.15144,-22.15144 L 77.44624,952.76453 59.85809,935.19931 24.4754,1027.8868 117.1629,992.50412 99.59768,974.91597 z" id="path3035" style="fill:#000000;stroke:none"/><path d="m 172.24728,734.7609 c 7.38381,-7.38381 14.76763,-14.76763 22.15144,-22.15144 l -94.80104,-94.80104 17.56522,-17.58815 -92.6875,-35.38269 35.38269,92.6875 17.58815,-17.56522 z" id="path3033" style="fill:#000000;stroke:none"/><path d="m 317.60131,712.60946 c 7.38381,7.38381 14.76763,14.76763 22.15144,22.15144 l 94.80104,-94.80104 17.58815,17.56522 35.38268,-92.6875 -92.68749,35.38269 17.56522,17.58815 z" id="path3003" style="fill:#000000;stroke:none"/></g></g></svg>