<?xml version="1.0" encoding="iso-8859-1"?>
<!-- Generator: Adobe Illustrator 19.0.0, SVG Export Plug-In . SVG Version: 6.00 Build 0)  -->
<svg version="1.1" id="Layer_1" xmlns="http://www.w3.org/2000/svg" xmlns:xlink="http://www.w3.org/1999/xlink" x="0px" y="0px"
	 viewBox="0 0 512 512" style="enable-background:new 0 0 512 512;" xml:space="preserve">
<g>
	<g>
		<g>
			<path d="M42.667,409.6H76.8c4.71,0,8.533-3.823,8.533-8.533s-3.823-8.533-8.533-8.533H42.667c-4.71,0-8.533,3.823-8.533,8.533
				S37.956,409.6,42.667,409.6z"/>
			<path d="M110.933,460.8H42.667c-4.71,0-8.533,3.823-8.533,8.533s3.823,8.533,8.533,8.533h68.267c4.71,0,8.533-3.823,8.533-8.533
				S115.644,460.8,110.933,460.8z"/>
			<path d="M110.933,426.667H42.667c-4.71,0-8.533,3.823-8.533,8.533s3.823,8.533,8.533,8.533h68.267
				c4.71,0,8.533-3.823,8.533-8.533S115.644,426.667,110.933,426.667z"/>
			<path d="M230.4,85.333h8.533c4.71,0,8.533-3.823,8.533-8.533s-3.823-8.533-8.533-8.533H230.4c-4.71,0-8.533,3.823-8.533,8.533
				S225.69,85.333,230.4,85.333z"/>
			<path d="M273.067,85.333h8.533c4.719,0,8.533-3.823,8.533-8.533s-3.814-8.533-8.533-8.533h-8.533
				c-4.719,0-8.533,3.823-8.533,8.533S268.348,85.333,273.067,85.333z"/>
			<path d="M76.8,324.267c4.71,0,8.533-3.823,8.533-8.533v-25.6h146.645c2.569,7.228,8.26,12.919,15.488,15.488v10.112
				c0,4.71,3.823,8.533,8.533,8.533s8.533-3.823,8.533-8.533V305.63c7.236-2.577,12.919-8.269,15.488-15.497h146.654v25.6
				c0,4.71,3.814,8.533,8.533,8.533s8.533-3.823,8.533-8.533V281.6c0-4.71-3.814-8.533-8.533-8.533H280.021
				c-2.569-7.228-8.252-12.919-15.488-15.497v-61.303c0-4.71-3.823-8.533-8.533-8.533s-8.533,3.823-8.533,8.533v61.303
				c-7.228,2.577-12.919,8.269-15.497,15.497H76.8c-4.71,0-8.533,3.823-8.533,8.533v34.133
				C68.267,320.444,72.09,324.267,76.8,324.267z M256,273.067c4.702,0,8.533,3.831,8.533,8.533c0,4.702-3.831,8.533-8.533,8.533
				c-4.702,0-8.533-3.831-8.533-8.533C247.467,276.898,251.298,273.067,256,273.067z"/>
			<path d="M188.066,100.292c1.621,16.401,8.755,30.839,9.096,31.522c7.74,15.471,19.43,38.852,58.837,38.852
				s51.098-23.381,58.837-38.852c0.341-0.683,7.475-15.121,9.105-31.522c5.274-2.901,8.858-8.525,8.858-14.959V68.267
				c0-6.306-3.43-11.819-8.533-14.771V51.2c0-28.237-22.963-51.2-51.2-51.2h-34.133c-28.237,0-51.2,22.963-51.2,51.2v2.295
				c-5.094,2.953-8.533,8.465-8.533,14.771v17.067C179.2,91.767,182.784,97.391,188.066,100.292z M196.267,68.267
				c4.71,0,8.533-3.823,8.533-8.533V51.2c0-18.825,15.309-34.133,34.133-34.133h34.133c18.825,0,34.133,15.309,34.133,34.133v8.533
				c0,4.71,3.814,8.533,8.533,8.533v17.067c-4.719,0-8.533,3.823-8.533,8.533c0,14.763-7.561,30.174-7.637,30.319
				C290.68,141.952,282.846,153.6,256,153.6c-26.846,0-34.679-11.648-43.563-29.406c-0.077-0.154-7.637-15.565-7.637-30.327
				c0-4.71-3.823-8.533-8.533-8.533V68.267z"/>
			<path d="M469.333,426.667h-68.267c-4.719,0-8.533,3.823-8.533,8.533s3.814,8.533,8.533,8.533h68.267
				c4.719,0,8.533-3.823,8.533-8.533S474.052,426.667,469.333,426.667z"/>
			<path d="M469.333,460.8h-68.267c-4.719,0-8.533,3.823-8.533,8.533s3.814,8.533,8.533,8.533h68.267
				c4.719,0,8.533-3.823,8.533-8.533S474.052,460.8,469.333,460.8z"/>
			<path d="M494.933,341.333H375.467c-9.412,0-17.067,7.654-17.067,17.067v136.533c0,9.412,7.654,17.067,17.067,17.067h119.467
				c9.412,0,17.067-7.654,17.067-17.067V358.4C512,348.988,504.346,341.333,494.933,341.333z M375.467,494.933V358.4h119.467
				l0.009,136.533H375.467z"/>
			<path d="M136.533,341.333H17.067C7.654,341.333,0,348.988,0,358.4v136.533C0,504.346,7.654,512,17.067,512h119.467
				c9.412,0,17.067-7.654,17.067-17.067V358.4C153.6,348.988,145.946,341.333,136.533,341.333z M17.067,494.933V358.4h119.467
				l0.009,136.533H17.067z"/>
			<path d="M401.067,409.6H435.2c4.719,0,8.533-3.823,8.533-8.533s-3.814-8.533-8.533-8.533h-34.133
				c-4.719,0-8.533,3.823-8.533,8.533S396.348,409.6,401.067,409.6z"/>
			<path d="M290.133,460.8h-68.267c-4.71,0-8.533,3.823-8.533,8.533s3.823,8.533,8.533,8.533h68.267
				c4.719,0,8.533-3.823,8.533-8.533S294.852,460.8,290.133,460.8z"/>
			<path d="M315.733,341.333H196.267c-9.412,0-17.067,7.654-17.067,17.067v136.533c0,9.412,7.654,17.067,17.067,17.067h119.467
				c9.412,0,17.067-7.654,17.067-17.067V358.4C332.8,348.988,325.146,341.333,315.733,341.333z M196.267,494.933V358.4h119.467
				l0.009,136.533H196.267z"/>
			<path d="M221.867,409.6H256c4.71,0,8.533-3.823,8.533-8.533s-3.823-8.533-8.533-8.533h-34.133c-4.71,0-8.533,3.823-8.533,8.533
				S217.156,409.6,221.867,409.6z"/>
			<path d="M290.133,426.667h-68.267c-4.71,0-8.533,3.823-8.533,8.533s3.823,8.533,8.533,8.533h68.267
				c4.719,0,8.533-3.823,8.533-8.533S294.852,426.667,290.133,426.667z"/>
		</g>
	</g>
</g>
<g>
</g>
<g>
</g>
<g>
</g>
<g>
</g>
<g>
</g>
<g>
</g>
<g>
</g>
<g>
</g>
<g>
</g>
<g>
</g>
<g>
</g>
<g>
</g>
<g>
</g>
<g>
</g>
<g>
</g>
</svg>
